<svg xmlns="http://www.w3.org/2000/svg" viewBox="0 0 750.41 500.4"><defs><style>.cls-1{fill:#fff;}.cls-2{fill:#00b1d1;}.cls-3{fill:#ffbc1d;}.cls-4{fill:#341a65;}.cls-5{fill:#ff2e60;}.cls-6{fill:#476aca;}</style></defs><title>home</title><g id="BACKGROUND"><rect class="cls-1" x="0.21" y="0.2" width="750" height="500"/></g><g id="OBJECTS"><rect class="cls-2" x="125.72" y="0.73" width="124.76" height="62.09"/><rect class="cls-2" x="625.41" y="250.4" width="62.24" height="125.38"/><rect class="cls-3" x="500.75" y="375.4" width="124.66" height="62.5"/><rect class="cls-4" x="500.59" y="125.48" width="124.82" height="124.82"/><rect class="cls-4" y="250.68" width="250.33" height="125.35"/><rect class="cls-5" x="375.38" y="125.37" width="125.17" height="125.03"/><rect class="cls-3" x="125.41" y="125.4" width="124.92" height="125.28"/><rect class="cls-2" x="313.76" y="125.4" width="61.89" height="62.39"/><rect class="cls-2" x="375.38" y="62.9" width="62.33" height="62.33"/><rect class="cls-6" x="375.84" y="250.32" width="125.08" height="125.67"/><path class="cls-6" d="M563.36,250V375.3a62.64,62.64,0,1,1,0-125.28Z" transform="translate(0.21 0.2)"/><path class="cls-3" d="M375.07.38H500.35A62.64,62.64,0,0,1,437.71,63,62.63,62.63,0,0,1,375.07.38Z" transform="translate(0.21 0.2)"/><path class="cls-5" d="M403.55.38h68.31a34.16,34.16,0,0,1-34.15,34.15A34.15,34.15,0,0,1,403.55.38Z" transform="translate(0.21 0.2)"/><path class="cls-3" d="M375.06,312.94V250.3h63A63,63,0,0,1,375.06,312.94Z" transform="translate(0.21 0.2)"/><path class="cls-2" d="M375.08,281.44V250.3h31.48A31.47,31.47,0,0,1,375.08,281.44Z" transform="translate(0.21 0.2)"/><polygon class="cls-4" points="312.08 375.09 313.2 375.09 312.64 375.65 312.08 375.09"/><path class="cls-2" d="M500.35,249.46V125.29H625.21A124.87,124.87,0,0,1,500.35,249.46Z" transform="translate(0.21 0.2)"/><path class="cls-3" d="M500.38,187V125.29h62.4A62.39,62.39,0,0,1,500.38,187Z" transform="translate(0.21 0.2)"/><polygon class="cls-4" points="375.84 313.32 250.55 313.32 313.2 250.68 375.84 313.32"/><polygon class="cls-6" points="340.69 313.32 285.69 313.32 313.2 285.82 340.69 313.32"/><rect class="cls-2" x="206.05" y="206.18" width="88.59" height="88.59" transform="translate(-103.58 250.58) rotate(-45)"/><polygon class="cls-5" points="250.55 313.32 250.33 250.68 313.2 250.68 250.55 313.32"/><polygon class="cls-5" points="250.56 188.04 250.33 250.68 187.91 250.68 250.56 188.04"/><rect class="cls-2" x="313.68" y="0.73" width="61.41" height="62.33"/><polygon class="cls-6" points="313.68 0.73 375.08 63.06 375.02 0.9 313.68 0.73"/><polygon class="cls-4" points="250.55 187.9 187.91 250.54 125.27 187.9 125.44 187.73 250.33 187.73 250.33 187.68 250.55 187.9"/><polygon class="cls-1" points="250.33 187.68 250.33 187.73 125.44 187.73 187.91 125.26 250.33 187.68"/><rect class="cls-6" x="168.26" y="168.25" width="38.89" height="38.89" transform="translate(-77.54 187.9) rotate(-45)"/><path class="cls-3" d="M313,438.43a62.65,62.65,0,0,0,62.64-62.64H250.35A62.64,62.64,0,0,0,313,438.43Z" transform="translate(0.21 0.2)"/><rect class="cls-2" x="281.66" y="281.81" width="62.67" height="125.28" transform="translate(657.65 31.66) rotate(90)"/><circle class="cls-5" cx="313.06" cy="375.82" r="35"/><path class="cls-4" d="M438.38,250.5h62.54a0,0,0,0,1,0,0V376a0,0,0,0,1,0,0h0a62.54,62.54,0,0,1-62.54-62.54V250.5A0,0,0,0,1,438.38,250.5Z"/><rect class="cls-5" y="376.02" width="250.33" height="60.95"/><polygon class="cls-1" points="250.23 375.92 250.23 376.02 0.31 376.02 125.32 251.02 250.23 375.92"/><rect class="cls-6" x="82.08" y="332.84" width="85.97" height="85.97" transform="translate(-228.91 198.71) rotate(-45)"/><circle class="cls-4" cx="594.43" cy="281.8" r="19.79" transform="translate(-24.95 503.06) rotate(-45)"/><polygon class="cls-4" points="501.03 437.76 375.74 437.76 438.39 500.4 501.03 437.76"/><path class="cls-6" d="M404,437.56h68.3a34.15,34.15,0,1,1-68.3,0Z" transform="translate(0.21 0.2)"/><rect class="cls-5" x="375.81" y="375.9" width="125.15" height="61.85"/><circle class="cls-1" cx="406.63" cy="407.11" r="19.79" transform="translate(-167.75 437.83) rotate(-48.07)"/><circle class="cls-1" cx="469.2" cy="407.11" r="19.79" transform="translate(-150.24 451.21) rotate(-45)"/><rect class="cls-5" x="250.33" y="0.4" width="63.43" height="187.33"/><circle class="cls-3" cx="281.76" cy="31.7" r="19.79" transform="translate(60.32 208.72) rotate(-45)"/><circle class="cls-3" cx="281.76" cy="93.86" r="19.79" transform="translate(126.38 347.03) rotate(-76.83)"/><circle class="cls-3" cx="281.76" cy="156.03" r="19.79" transform="translate(-27.6 245.13) rotate(-45)"/><rect class="cls-2" x="61.75" y="374.82" width="63.43" height="187.33" transform="translate(-374.82 562.14) rotate(-90)"/><circle class="cls-4" cx="31.29" cy="468.81" r="19.79" transform="translate(-431.96 391.76) rotate(-76.72)"/><circle class="cls-4" cx="93.46" cy="468.81" r="19.79" transform="translate(-7.12 1.72) rotate(-0.9)"/><circle class="cls-4" cx="155.63" cy="468.81" r="19.79" transform="translate(-336.01 514.82) rotate(-76.96)"/><rect class="cls-4" x="643.2" y="80.99" width="88.59" height="88.59" transform="translate(112.98 523.03) rotate(-45)"/><polygon class="cls-5" points="687.7 188.12 687.91 125.48 750.35 125.48 687.7 188.12"/><polygon class="cls-5" points="687.71 62.84 687.91 125.48 625.06 125.48 687.71 62.84"/><polygon class="cls-3" points="60.09 437.02 0 376.02 0.06 436.86 60.09 437.02"/><rect class="cls-5" x="187.33" y="436.81" width="62.98" height="63.59"/><polygon class="cls-3" points="187.6 436.81 250.33 500.4 250.27 436.98 187.6 436.81"/><rect class="cls-4" x="393.41" y="143.2" width="88.59" height="88.59" transform="translate(-4.18 364.62) rotate(-45)"/><path class="cls-3" d="M375.56,125.18S377,155.13,360,172s-46.28,15.41-46.28,15.41-1.51-28.9,15.57-45.81S375.56,125.18,375.56,125.18Z" transform="translate(0.21 0.2)"/><path class="cls-5" d="M313.68,62.87s-1.47,30,15.6,46.86,46.28,15.41,46.28,15.41,1.51-28.9-15.57-45.81S313.68,62.87,313.68,62.87Z" transform="translate(0.21 0.2)"/><path class="cls-3" d="M375.63,125.17s-1.47,30,15.6,46.87,46.28,15.41,46.28,15.41,1.51-28.9-15.57-45.81S375.63,125.17,375.63,125.17Z" transform="translate(0.21 0.2)"/><path class="cls-5" d="M437.51,62.87s1.48,29.95-15.6,46.86-46.28,15.41-46.28,15.41-1.51-28.9,15.57-45.81S437.51,62.87,437.51,62.87Z" transform="translate(0.21 0.2)"/><polygon class="cls-6" points="500.55 187.7 437.88 187.36 437.91 250.34 500.55 187.7"/><polygon class="cls-1" points="250.17 187.78 375.65 313.26 375.65 187.78 250.17 187.78"/><circle class="cls-6" cx="344.5" cy="219.16" r="19.79" transform="translate(-61.99 255.56) rotate(-37.55)"/><path class="cls-2" d="M562.67,437.89s1.48,30-15.6,46.86-46.28,15.41-46.28,15.41-1.51-28.9,15.57-45.8S562.67,437.89,562.67,437.89Z" transform="translate(0.21 0.2)"/><path class="cls-6" d="M500.79,375.58s-1.47,30,15.6,46.86,46.28,15.42,46.28,15.42,1.51-28.91-15.57-45.81S500.79,375.58,500.79,375.58Z" transform="translate(0.21 0.2)"/><path class="cls-2" d="M562.74,437.89s-1.47,30,15.6,46.86,46.28,15.41,46.28,15.41,1.51-28.9-15.57-45.8S562.74,437.89,562.74,437.89Z" transform="translate(0.21 0.2)"/><path class="cls-6" d="M624.62,375.58s1.48,30-15.6,46.86-46.28,15.41-46.28,15.41-1.51-28.9,15.57-45.8S624.62,375.58,624.62,375.58Z" transform="translate(0.21 0.2)"/><rect class="cls-2" x="563.56" y="313.56" width="61.93" height="61.93"/><polygon class="cls-4" points="563.56 313.56 625.5 313.56 625.5 375.5 563.56 313.56"/><rect class="cls-3" x="687.71" y="438.1" width="62.29" height="62.29"/><polygon class="cls-5" points="687.71 438.1 750 438.1 750 500.4 687.71 438.1"/><rect class="cls-6" x="625.21" y="437.9" width="62.29" height="62.29" transform="translate(187.51 1125.6) rotate(-90)"/><polygon class="cls-4" points="625.41 500.4 625.41 438.1 687.71 438.1 625.41 500.4"/><rect class="cls-4" x="687.71" y="250.86" width="62.29" height="187.33"/><circle class="cls-6" cx="718.65" cy="282.17" r="19.79" transform="translate(277.85 916.07) rotate(-76.6)"/><circle class="cls-6" cx="718.65" cy="344.33" r="19.79" transform="translate(-32.79 609.21) rotate(-45)"/><circle class="cls-6" cx="718.65" cy="406.5" r="19.79" transform="translate(156.9 1011.59) rotate(-76.6)"/><path class="cls-5" d="M687.65,312.65h0a0,0,0,0,1,0,0V438.14a0,0,0,0,1,0,0H625.11a0,0,0,0,1,0,0V375.19A62.54,62.54,0,0,1,687.65,312.65Z"/><polygon class="cls-3" points="625.06 125.48 687.7 188.12 687.71 250.86 625.41 250.31 625.06 125.48"/><path class="cls-5" d="M687.48,251s1.47,30-15.61,46.87-46.27,15.41-46.27,15.41-1.51-28.91,15.56-45.81S687.48,251,687.48,251Z" transform="translate(0.21 0.2)"/><path class="cls-5" d="M749.76,188.45s1.47,30-15.6,46.87-46.28,15.41-46.28,15.41-1.51-28.91,15.57-45.81S749.76,188.45,749.76,188.45Z" transform="translate(0.21 0.2)"/><rect class="cls-3" x="-0.21" y="0.2" width="125.41" height="125" transform="translate(125.21 125.59) rotate(180)"/><path class="cls-4" d="M125.21,63v62.16H62.7A62.51,62.51,0,0,1,125.21,63Z" transform="translate(0.21 0.2)"/><path class="cls-2" d="M125.19,94.29v30.9H94A31.23,31.23,0,0,1,125.19,94.29Z" transform="translate(0.21 0.2)"/><path class="cls-6" d="M-.21.2H62.87a0,0,0,0,1,0,0v125a0,0,0,0,1,0,0h0A63.08,63.08,0,0,1-.21,62.12V.2A0,0,0,0,1-.21.2Z" transform="translate(62.87 125.59) rotate(180)"/><circle class="cls-5" cx="93.95" cy="31.7" r="19.79" transform="translate(5.31 75.92) rotate(-45)"/><polygon class="cls-6" points="250.7 63.04 188.06 125.68 125.42 63.04 125.59 62.87 250.48 62.87 250.48 62.82 250.7 63.04"/><polygon class="cls-4" points="250.48 62.82 250.48 62.87 125.59 62.87 188.06 0.4 250.48 62.82"/><rect class="cls-3" x="168.41" y="43.39" width="38.89" height="38.89" transform="translate(10.79 151.44) rotate(-45)"/><polygon class="cls-4" points="626.04 125.48 500.55 0 500.55 125.48 626.04 125.48"/><circle class="cls-6" cx="531.29" cy="93.71" r="19.79" transform="translate(353.38 603.15) rotate(-80.72)"/><polygon class="cls-5" points="689.37 0.4 560.76 0.4 625.07 64.69 689.37 0.4"/><polygon class="cls-2" points="625.07 64.69 625.41 125.48 750.41 0.4 689.37 0.4 625.07 64.69"/><polygon class="cls-6" points="750.41 0.4 687.7 62.84 750.35 125.48 750.41 0.4"/><circle class="cls-2" cx="281.15" cy="469.04" r="19.79" transform="translate(-249.11 336.38) rotate(-45)"/><circle class="cls-2" cx="343.72" cy="469.04" r="19.79" transform="translate(-230.78 380.62) rotate(-45)"/><polygon class="cls-3" points="375.74 437.76 375.84 500.4 438.39 500.4 375.74 437.76"/><polygon class="cls-2" points="500.55 97.73 500.55 152.73 473.06 125.22 500.55 97.73"/><polygon class="cls-4" points="437.97 125.36 437.97 63.07 500.26 63.07 437.97 125.36"/><path class="cls-6" d="M125.51,187.84a62.65,62.65,0,0,1-62.64,62.64V125.2A62.64,62.64,0,0,1,125.51,187.84Z" transform="translate(0.21 0.2)"/><rect class="cls-5" y="125.4" width="63.08" height="125.28"/><circle class="cls-4" cx="62.91" cy="187.9" r="35"/></g></svg>