<svg xmlns="http://www.w3.org/2000/svg" viewBox="0 0 972 972"><defs><style>.cls-1{fill:#f9f9f9;}</style></defs><title>Asset 3</title><g id="Layer_2" data-name="Layer 2"><g id="Layer_1-2" data-name="Layer 1"><rect class="cls-1" width="972" height="972" rx="195.5"/><path d="M515.41,657c-37.8,37.8-98.4,37.8-135.6,0L251.41,529.19V685.8c-52.81,0-96-43.2-96-96v-168h180a36,36,0,0,0,0-72h-84c-52.81,0-96-43.2-96-96h180c72.6,0,132,59.4,132,132,0,60-42,111.6-96.6,127.2Z"/><path d="M840.6,553.79a132,132,0,0,1-132,132h-72a131.62,131.62,0,0,1-132-132c0-39,16.8-73.8,43.8-98.4a129.35,129.35,0,0,1-19.8-69.6,132,132,0,0,1,132-132h24c72.6,0,132,59.4,132,132a129.35,129.35,0,0,1-19.8,69.6C823.8,480,840.6,514.79,840.6,553.79Zm-96,0a36.11,36.11,0,0,0-36-36h-72a36,36,0,1,0,0,72h72A36.1,36.1,0,0,0,744.6,553.79Zm-120-168a36.11,36.11,0,0,0,36,36h24a36,36,0,0,0,0-72h-24A36.11,36.11,0,0,0,624.6,385.79Z"/></g></g></svg>